#!OML:ASF F:\VICON\USERDATA\INSTALL\rory3\rory3.ASF
:FULLY-SPECIFIED
:DEGREES
288
root -7.23493 17.9455 13.428 29.9894 79.6664 29.4263
lowerback 12.213 3.37703 -2.50635
upperback 1.13088 4.12026 -1.2539
thorax -5.7324 2.09069 -0.609588
lowerneck -21.4543 -5.58752 -11.7869
upperneck 28.3784 -5.92565 7.85894
head 13.8686 -2.65671 4.09927
rclavicle 5.1684e-015 1.98785e-014
rhumerus -28.4957 -12.012 -78.9977
rradius 36.0772
rwrist 3.10032
rhand -16.4442 12.1791
rfingers 7.12502
rthumb 9.77159 -17.5742
lclavicle 5.1684e-015 1.98785e-014
lhumerus -40.4942 11.1338 79.7154
lradius 28.2865
lwrist -9.98527
lhand -21.6633 28.8989
lfingers 7.12502
lthumb 4.73391 58.826
rfemur -10.1772 -8.31167 8.97469
rtibia 59.5693
rfoot -0.950964 -8.61935
rtoes 12.0591
lfemur -7.67177 5.9522 -30.6428
ltibia 15.3274
lfoot -5.43252 -4.60461
ltoes 16.9505
289
root -7.11761 17.928 13.4267 31.2781 80.0007 30.8157
lowerback 12.2897 3.22859 -2.51944
upperback 1.12313 3.91683 -1.30234
thorax -5.77797 1.99111 -0.622827
lowerneck -21.3395 -5.57965 -11.8297
upperneck 28.2937 -5.96689 8.03325
head 13.8212 -2.65693 4.16848
rclavicle -1.05853e-014 2.78299e-015
rhumerus -28.8307 -12.3576 -79.1676
rradius 35.977
rwrist 3.16113
rhand -16.7274 11.9688
rfingers 7.12502
rthumb 9.49834 -17.7971
lclavicle -1.05853e-014 2.78299e-015
lhumerus -39.9185 10.9279 79.8226
lradius 28.4102
lwrist -10.155
lhand -21.5813 29.6508
lfingers 7.12502
lthumb 4.81304 59.5762
rfemur -11.4212 -8.21211 9.2223
rtibia 60.42
rfoot -2.28394 -7.75667
rtoes 10.1643
lfemur -7.36573 6.17454 -30.7304
ltibia 15.7636
lfoot -6.05437 -5.14464
ltoes 16.0385
290
root -7.00104 17.9062 13.4251 32.9043 80.3036 32.5564
lowerback 12.3503 3.04135 -2.69595
upperback 1.14272 3.64568 -1.26224
thorax -5.80121 1.86302 -0.43795
lowerneck -21.3799 -5.5233 -11.8661
upperneck 28.3338 -5.86226 8.01662
head 13.8343 -2.61766 4.18896
rclavicle -1.61016e-014 2.66371e-014
rhumerus -29.1257 -12.5091 -79.2679
rradius 35.8705
rwrist 3.36344
rhand -16.6541 12.0737
rfingers 7.12502
rthumb 9.56913 -17.689
lclavicle -1.61016e-014 2.66371e-014
lhumerus -39.3697 10.8555 80.0515
lradius 28.5721
lwrist -10.083
lhand -21.2888 29.9298
lfingers 7.12502
lthumb 5.09553 59.8485
rfemur -12.6445 -8.20504 9.38308
rtibia 61.1582
rfoot -3.86405 -6.84786
rtoes 8.58068
lfemur -7.08305 6.16856 -30.868
ltibia 16.2809
lfoot -6.7022 -5.34105
ltoes 16.442
291
root -6.88486 17.8833 13.4217 34.7757 80.5812 34.4852
lowerback 12.3366 2.86409 -2.87878
upperback 1.15123 3.38962 -1.20923
thorax -5.79414 1.74246 -0.234412
lowerneck -21.3867 -5.4745 -11.8814
upperneck 28.3965 -5.73304 7.8583
head 13.8412 -2.58527 4.15288
rclavicle 1.35174e-014 -9.93923e-015
rhumerus -29.414 -12.3078 -79.3034
rradius 35.777
rwrist 3.34171
rhand -16.6586 12.018
rfingers 7.12502
rthumb 9.56476 -17.7449
lclavicle 1.35174e-014 -9.93923e-015
lhumerus -38.8344 10.8566 80.218
lradius 28.6222
lwrist -9.91325
lhand -20.3329 28.5847
lfingers 7.12502
lthumb 6.01843 58.4793
rfemur -13.9293 -8.26103 9.52196
rtibia 61.7721
rfoot -5.13473 -6.04518
rtoes 6.1659
lfemur -6.87277 6.22364 -31.0318
ltibia 16.8236
lfoot -7.34172 -5.58776
ltoes 17.1557
292
root -6.76737 17.8595 13.4158 37.0921 81.0017 36.8809
lowerback 12.3754 2.67684 -2.88348
upperback 1.15433 3.13899 -1.22746
thorax -5.80617 1.61988 -0.208834
lowerneck -21.2769 -5.51171 -11.994
upperneck 28.3717 -5.79866 7.98571
head 13.825 -2.61001 4.21219
rclavicle 9.34288e-015 1.19271e-015
rhumerus -29.8015 -12.2107 -79.3883
rradius 35.7465
rwrist 3.2229
rhand -16.5324 11.8191
rfingers 7.12502
rthumb 9.68656 -17.9381
lclavicle 9.34288e-015 1.19271e-015
lhumerus -38.2863 10.7498 80.2787
lradius 28.731
lwrist -9.71371
lhand -19.3543 27.2902
lfingers 7.12502
lthumb 6.96316 57.1557
rfemur -15.1367 -8.43371 9.71169
rtibia 62.2449
rfoot -6.17953 -5.38252
rtoes 4.23744
lfemur -6.62055 6.24238 -31.1345
ltibia 17.3531
lfoot -7.97463 -5.98748
ltoes 16.8218
293
root -6.64861 17.8395 13.4174 39.8492 81.4392 39.7321
lowerback 12.4092 2.51958 -3.00714
upperback 1.17614 2.91361 -1.23689
thorax -5.80265 1.51272 -0.110897
lowerneck -21.1772 -5.61036 -12.2358
upperneck 28.331 -5.99543 8.38813
head 13.8373 -2.66811 4.38227
rclavicle -9.59136e-015 8.74653e-015
rhumerus -30.1886 -12.4105 -79.4789
rradius 35.6428
rwrist 3.35145
rhand -16.3745 11.7207
rfingers 7.12502
rthumb 9.83888 -18.0294
lclavicle -9.59136e-015 8.74653e-015
lhumerus -37.6364 10.4347 80.5545
lradius 28.8889
lwrist -9.74702
lhand -20.915 28.7296
lfingers 7.12502
lthumb 5.4564 58.6394
rfemur -16.2729 -8.58115 9.95429
rtibia 62.5342
rfoot -7.16404 -4.90043
rtoes 2.568
lfemur -6.34589 6.05056 -31.2211
ltibia 17.902
lfoot -8.64803 -6.19985
ltoes 15.4808
